<mxfile host="app.diagrams.net" modified="2023-12-09T02:32:37.186Z" agent="Mozilla/5.0 (Windows NT 10.0; Win64; x64) AppleWebKit/537.36 (KHTML, like Gecko) Chrome/120.0.0.0 Safari/537.36 Edg/120.0.0.0" etag="rNbaSYx6eX-aI0HaVSbT" version="22.1.7" type="device">
  <diagram name="PÃ¡gina-1" id="eDVxBndH5zkoMItuhbbR">
    <mxGraphModel dx="693" dy="401" grid="1" gridSize="10" guides="1" tooltips="1" connect="1" arrows="1" fold="1" page="1" pageScale="1" pageWidth="827" pageHeight="1169" math="0" shadow="0">
      <root>
        <mxCell id="0" />
        <mxCell id="1" parent="0" />
        <mxCell id="PtGYAPhH0vWM9OJlpQl2-1" value="" style="swimlane;startSize=0;" vertex="1" parent="1">
          <mxGeometry x="40" y="90" width="930" height="470" as="geometry">
            <mxRectangle x="40" y="90" width="50" height="40" as="alternateBounds" />
          </mxGeometry>
        </mxCell>
        <mxCell id="PtGYAPhH0vWM9OJlpQl2-2" value="ObsAvoidance" style="swimlane;whiteSpace=wrap;html=1;fillColor=#d5e8d4;strokeColor=#82b366;" vertex="1" parent="PtGYAPhH0vWM9OJlpQl2-1">
          <mxGeometry x="40" y="30" width="200" height="200" as="geometry">
            <mxRectangle x="40" y="30" width="120" height="30" as="alternateBounds" />
          </mxGeometry>
        </mxCell>
        <mxCell id="PtGYAPhH0vWM9OJlpQl2-5" value="&lt;div style=&quot;font-size: 15px;&quot;&gt;&lt;span style=&quot;background-color: initial;&quot;&gt;&lt;font style=&quot;font-size: 15px;&quot;&gt;Geters:&lt;/font&gt;&lt;/span&gt;&lt;/div&gt;&lt;font style=&quot;font-size: 15px;&quot;&gt;- Origin Pos&lt;br&gt;- Origin Look dir&lt;br&gt;Data:&lt;br&gt;- radius&lt;br&gt;- view Angle&lt;br&gt;[Serialize]&lt;br&gt;- Obs Mask&lt;/font&gt;" style="text;html=1;strokeColor=none;fillColor=none;align=center;verticalAlign=middle;whiteSpace=wrap;rounded=0;" vertex="1" parent="PtGYAPhH0vWM9OJlpQl2-2">
          <mxGeometry y="30" width="200" height="170" as="geometry" />
        </mxCell>
        <mxCell id="PtGYAPhH0vWM9OJlpQl2-7" value="Intercept" style="swimlane;whiteSpace=wrap;html=1;fillColor=#d5e8d4;strokeColor=#82b366;" vertex="1" parent="PtGYAPhH0vWM9OJlpQl2-1">
          <mxGeometry x="260" y="30" width="200" height="200" as="geometry">
            <mxRectangle x="40" y="30" width="120" height="30" as="alternateBounds" />
          </mxGeometry>
        </mxCell>
        <mxCell id="PtGYAPhH0vWM9OJlpQl2-8" value="&lt;div style=&quot;font-size: 15px;&quot;&gt;&lt;span style=&quot;background-color: initial;&quot;&gt;&lt;font style=&quot;font-size: 15px;&quot;&gt;Geters:&lt;/font&gt;&lt;/span&gt;&lt;/div&gt;&lt;font style=&quot;font-size: 15px;&quot;&gt;- Origin Pos&lt;br&gt;- Origin Look dir&lt;br&gt;- Target Pos&lt;br&gt;-Target movement&lt;br&gt;Data:&lt;br&gt;- prediction time&lt;/font&gt;" style="text;html=1;strokeColor=none;fillColor=none;align=center;verticalAlign=middle;whiteSpace=wrap;rounded=0;" vertex="1" parent="PtGYAPhH0vWM9OJlpQl2-7">
          <mxGeometry y="30" width="200" height="170" as="geometry" />
        </mxCell>
        <mxCell id="PtGYAPhH0vWM9OJlpQl2-9" value="Flee" style="swimlane;whiteSpace=wrap;html=1;fillColor=#d5e8d4;strokeColor=#82b366;" vertex="1" parent="PtGYAPhH0vWM9OJlpQl2-1">
          <mxGeometry x="480" y="30" width="200" height="200" as="geometry">
            <mxRectangle x="40" y="30" width="120" height="30" as="alternateBounds" />
          </mxGeometry>
        </mxCell>
        <mxCell id="PtGYAPhH0vWM9OJlpQl2-10" value="&lt;div style=&quot;font-size: 15px;&quot;&gt;&lt;span style=&quot;background-color: initial;&quot;&gt;&lt;font style=&quot;font-size: 15px;&quot;&gt;Geters:&lt;/font&gt;&lt;/span&gt;&lt;/div&gt;&lt;font style=&quot;font-size: 15px;&quot;&gt;- Origin Pos&lt;br&gt;- Target Pos&lt;/font&gt;" style="text;html=1;strokeColor=none;fillColor=none;align=center;verticalAlign=middle;whiteSpace=wrap;rounded=0;" vertex="1" parent="PtGYAPhH0vWM9OJlpQl2-9">
          <mxGeometry y="30" width="200" height="170" as="geometry" />
        </mxCell>
        <mxCell id="PtGYAPhH0vWM9OJlpQl2-13" value="Evade" style="swimlane;whiteSpace=wrap;html=1;fillColor=#d5e8d4;strokeColor=#82b366;" vertex="1" parent="PtGYAPhH0vWM9OJlpQl2-1">
          <mxGeometry x="260" y="250" width="200" height="200" as="geometry">
            <mxRectangle x="40" y="30" width="120" height="30" as="alternateBounds" />
          </mxGeometry>
        </mxCell>
        <mxCell id="PtGYAPhH0vWM9OJlpQl2-14" value="&lt;div style=&quot;font-size: 15px;&quot;&gt;&lt;span style=&quot;background-color: initial;&quot;&gt;&lt;font style=&quot;font-size: 15px;&quot;&gt;Geters:&lt;/font&gt;&lt;/span&gt;&lt;/div&gt;&lt;font style=&quot;font-size: 15px;&quot;&gt;- Origin Pos&lt;br&gt;- Origin Look dir&lt;br&gt;- Target Pos&lt;br&gt;-Target movement&lt;br&gt;Data:&lt;br&gt;- prediction time&lt;/font&gt;" style="text;html=1;strokeColor=none;fillColor=none;align=center;verticalAlign=middle;whiteSpace=wrap;rounded=0;" vertex="1" parent="PtGYAPhH0vWM9OJlpQl2-13">
          <mxGeometry y="30" width="200" height="170" as="geometry" />
        </mxCell>
        <mxCell id="PtGYAPhH0vWM9OJlpQl2-16" value="Chase" style="swimlane;whiteSpace=wrap;html=1;fillColor=#d5e8d4;strokeColor=#82b366;" vertex="1" parent="PtGYAPhH0vWM9OJlpQl2-1">
          <mxGeometry x="480" y="250" width="200" height="200" as="geometry">
            <mxRectangle x="40" y="30" width="120" height="30" as="alternateBounds" />
          </mxGeometry>
        </mxCell>
        <mxCell id="PtGYAPhH0vWM9OJlpQl2-17" value="&lt;div style=&quot;font-size: 15px;&quot;&gt;&lt;span style=&quot;background-color: initial;&quot;&gt;&lt;font style=&quot;font-size: 15px;&quot;&gt;Geters:&lt;/font&gt;&lt;/span&gt;&lt;/div&gt;&lt;font style=&quot;font-size: 15px;&quot;&gt;- Origin Pos&lt;br&gt;- Target Pos&lt;/font&gt;" style="text;html=1;strokeColor=none;fillColor=none;align=center;verticalAlign=middle;whiteSpace=wrap;rounded=0;" vertex="1" parent="PtGYAPhH0vWM9OJlpQl2-16">
          <mxGeometry y="30" width="200" height="170" as="geometry" />
        </mxCell>
        <mxCell id="PtGYAPhH0vWM9OJlpQl2-46" value="Flocking" style="swimlane;whiteSpace=wrap;html=1;" vertex="1" parent="PtGYAPhH0vWM9OJlpQl2-1">
          <mxGeometry x="700" y="30" width="200" height="200" as="geometry">
            <mxRectangle x="40" y="30" width="120" height="30" as="alternateBounds" />
          </mxGeometry>
        </mxCell>
        <mxCell id="PtGYAPhH0vWM9OJlpQl2-47" value="&lt;div style=&quot;font-size: 15px;&quot;&gt;No me acuerdo :,)&lt;/div&gt;&lt;div style=&quot;font-size: 15px;&quot;&gt;No es 100% necesario&lt;/div&gt;" style="text;html=1;strokeColor=none;fillColor=none;align=center;verticalAlign=middle;whiteSpace=wrap;rounded=0;" vertex="1" parent="PtGYAPhH0vWM9OJlpQl2-46">
          <mxGeometry y="30" width="200" height="170" as="geometry" />
        </mxCell>
        <mxCell id="PtGYAPhH0vWM9OJlpQl2-3" value="SteeringBh" style="text;html=1;strokeColor=none;fillColor=none;align=center;verticalAlign=middle;whiteSpace=wrap;rounded=0;" vertex="1" parent="1">
          <mxGeometry x="40" y="60" width="60" height="30" as="geometry" />
        </mxCell>
        <mxCell id="PtGYAPhH0vWM9OJlpQl2-24" value="" style="edgeStyle=orthogonalEdgeStyle;rounded=0;orthogonalLoop=1;jettySize=auto;html=1;" edge="1" parent="1" source="PtGYAPhH0vWM9OJlpQl2-22" target="PtGYAPhH0vWM9OJlpQl2-23">
          <mxGeometry relative="1" as="geometry" />
        </mxCell>
        <mxCell id="PtGYAPhH0vWM9OJlpQl2-29" value="" style="edgeStyle=orthogonalEdgeStyle;rounded=0;orthogonalLoop=1;jettySize=auto;html=1;" edge="1" parent="1" source="PtGYAPhH0vWM9OJlpQl2-22" target="PtGYAPhH0vWM9OJlpQl2-23">
          <mxGeometry relative="1" as="geometry" />
        </mxCell>
        <mxCell id="PtGYAPhH0vWM9OJlpQl2-30" value="" style="edgeStyle=orthogonalEdgeStyle;rounded=0;orthogonalLoop=1;jettySize=auto;html=1;" edge="1" parent="1" source="PtGYAPhH0vWM9OJlpQl2-22" target="PtGYAPhH0vWM9OJlpQl2-23">
          <mxGeometry relative="1" as="geometry" />
        </mxCell>
        <mxCell id="PtGYAPhH0vWM9OJlpQl2-32" value="" style="edgeStyle=orthogonalEdgeStyle;rounded=0;orthogonalLoop=1;jettySize=auto;html=1;entryX=0;entryY=0.5;entryDx=0;entryDy=0;" edge="1" parent="1" target="PtGYAPhH0vWM9OJlpQl2-31">
          <mxGeometry relative="1" as="geometry">
            <mxPoint x="545" y="660" as="sourcePoint" />
            <mxPoint x="685" y="760" as="targetPoint" />
            <Array as="points">
              <mxPoint x="545" y="661" />
              <mxPoint x="675" y="661" />
              <mxPoint x="675" y="950" />
            </Array>
          </mxGeometry>
        </mxCell>
        <mxCell id="PtGYAPhH0vWM9OJlpQl2-40" value="" style="edgeStyle=orthogonalEdgeStyle;rounded=0;orthogonalLoop=1;jettySize=auto;html=1;" edge="1" parent="1" source="PtGYAPhH0vWM9OJlpQl2-22" target="PtGYAPhH0vWM9OJlpQl2-39">
          <mxGeometry relative="1" as="geometry" />
        </mxCell>
        <mxCell id="PtGYAPhH0vWM9OJlpQl2-22" value="Base Class" style="rounded=0;whiteSpace=wrap;html=1;" vertex="1" parent="1">
          <mxGeometry x="515" y="630" width="120" height="60" as="geometry" />
        </mxCell>
        <mxCell id="PtGYAPhH0vWM9OJlpQl2-26" value="" style="edgeStyle=orthogonalEdgeStyle;rounded=0;orthogonalLoop=1;jettySize=auto;html=1;" edge="1" parent="1" source="PtGYAPhH0vWM9OJlpQl2-23" target="PtGYAPhH0vWM9OJlpQl2-25">
          <mxGeometry relative="1" as="geometry" />
        </mxCell>
        <mxCell id="PtGYAPhH0vWM9OJlpQl2-23" value="Getters" style="rounded=0;whiteSpace=wrap;html=1;" vertex="1" parent="1">
          <mxGeometry x="715" y="630" width="120" height="60" as="geometry" />
        </mxCell>
        <mxCell id="PtGYAPhH0vWM9OJlpQl2-25" value="Vector 2 GetCurrPos()" style="rounded=0;whiteSpace=wrap;html=1;" vertex="1" parent="1">
          <mxGeometry x="915" y="630" width="140" height="60" as="geometry" />
        </mxCell>
        <mxCell id="PtGYAPhH0vWM9OJlpQl2-27" value="Vector 2 GetMovementDir()" style="rounded=0;whiteSpace=wrap;html=1;" vertex="1" parent="1">
          <mxGeometry x="915" y="700" width="140" height="60" as="geometry" />
        </mxCell>
        <mxCell id="PtGYAPhH0vWM9OJlpQl2-28" value="Vector 2 GetTargetMovement()&lt;br&gt;// seria currDir * speed" style="rounded=0;whiteSpace=wrap;html=1;" vertex="1" parent="1">
          <mxGeometry x="915" y="770" width="140" height="110" as="geometry" />
        </mxCell>
        <mxCell id="PtGYAPhH0vWM9OJlpQl2-34" value="" style="edgeStyle=orthogonalEdgeStyle;rounded=0;orthogonalLoop=1;jettySize=auto;html=1;" edge="1" parent="1" source="PtGYAPhH0vWM9OJlpQl2-31" target="PtGYAPhH0vWM9OJlpQl2-33">
          <mxGeometry relative="1" as="geometry" />
        </mxCell>
        <mxCell id="PtGYAPhH0vWM9OJlpQl2-35" value="" style="edgeStyle=orthogonalEdgeStyle;rounded=0;orthogonalLoop=1;jettySize=auto;html=1;" edge="1" parent="1" source="PtGYAPhH0vWM9OJlpQl2-31" target="PtGYAPhH0vWM9OJlpQl2-33">
          <mxGeometry relative="1" as="geometry" />
        </mxCell>
        <mxCell id="PtGYAPhH0vWM9OJlpQl2-37" style="edgeStyle=orthogonalEdgeStyle;rounded=0;orthogonalLoop=1;jettySize=auto;html=1;entryX=0;entryY=0.5;entryDx=0;entryDy=0;" edge="1" parent="1" source="PtGYAPhH0vWM9OJlpQl2-31" target="PtGYAPhH0vWM9OJlpQl2-36">
          <mxGeometry relative="1" as="geometry" />
        </mxCell>
        <mxCell id="PtGYAPhH0vWM9OJlpQl2-44" style="edgeStyle=orthogonalEdgeStyle;rounded=0;orthogonalLoop=1;jettySize=auto;html=1;entryX=0;entryY=0.5;entryDx=0;entryDy=0;" edge="1" parent="1" source="PtGYAPhH0vWM9OJlpQl2-31" target="PtGYAPhH0vWM9OJlpQl2-42">
          <mxGeometry relative="1" as="geometry" />
        </mxCell>
        <mxCell id="PtGYAPhH0vWM9OJlpQl2-45" style="edgeStyle=orthogonalEdgeStyle;rounded=0;orthogonalLoop=1;jettySize=auto;html=1;entryX=0;entryY=0.5;entryDx=0;entryDy=0;" edge="1" parent="1" source="PtGYAPhH0vWM9OJlpQl2-31" target="PtGYAPhH0vWM9OJlpQl2-43">
          <mxGeometry relative="1" as="geometry" />
        </mxCell>
        <mxCell id="PtGYAPhH0vWM9OJlpQl2-31" value="Data" style="rounded=0;whiteSpace=wrap;html=1;" vertex="1" parent="1">
          <mxGeometry x="715" y="920" width="120" height="60" as="geometry" />
        </mxCell>
        <mxCell id="PtGYAPhH0vWM9OJlpQl2-33" value="Int obsAvoidRadius" style="rounded=0;whiteSpace=wrap;html=1;" vertex="1" parent="1">
          <mxGeometry x="915" y="920" width="150" height="60" as="geometry" />
        </mxCell>
        <mxCell id="PtGYAPhH0vWM9OJlpQl2-36" value="float obsAvoidViewAngle" style="rounded=0;whiteSpace=wrap;html=1;" vertex="1" parent="1">
          <mxGeometry x="915" y="990" width="150" height="60" as="geometry" />
        </mxCell>
        <mxCell id="PtGYAPhH0vWM9OJlpQl2-38" value="Layer ObsLayer" style="rounded=0;whiteSpace=wrap;html=1;" vertex="1" parent="1">
          <mxGeometry x="125" y="700" width="150" height="60" as="geometry" />
        </mxCell>
        <mxCell id="PtGYAPhH0vWM9OJlpQl2-41" style="edgeStyle=orthogonalEdgeStyle;rounded=0;orthogonalLoop=1;jettySize=auto;html=1;" edge="1" parent="1" source="PtGYAPhH0vWM9OJlpQl2-39" target="PtGYAPhH0vWM9OJlpQl2-38">
          <mxGeometry relative="1" as="geometry" />
        </mxCell>
        <mxCell id="PtGYAPhH0vWM9OJlpQl2-39" value="Hard Data" style="rounded=0;whiteSpace=wrap;html=1;" vertex="1" parent="1">
          <mxGeometry x="365" y="700" width="120" height="60" as="geometry" />
        </mxCell>
        <mxCell id="PtGYAPhH0vWM9OJlpQl2-42" value="float InterceptPredTime" style="rounded=0;whiteSpace=wrap;html=1;" vertex="1" parent="1">
          <mxGeometry x="915" y="1060" width="150" height="60" as="geometry" />
        </mxCell>
        <mxCell id="PtGYAPhH0vWM9OJlpQl2-43" value="float EvadePredTime" style="rounded=0;whiteSpace=wrap;html=1;" vertex="1" parent="1">
          <mxGeometry x="915" y="1139" width="150" height="60" as="geometry" />
        </mxCell>
      </root>
    </mxGraphModel>
  </diagram>
</mxfile>
